# xmcd CD database file
#
# Track frame offsets:
#	150
#	12500
#	29405
#	48630
#	65360
#	86575
#	101072
#	118937
#	138587
#
# Disc length: 2105 seconds
#
# Revision: 0
# Processed by: cddbd v1.4PL0 Copyright (c) Steve Scherf et al.
# Submitted via: CDex 1.40Release
#
DISCID=80083709
DTITLE=ashley marie - nothing is better
DYEAR=1900
DGENRE=Country
TTITLE0=Gotta Love Him
TTITLE1=Don't Leave Me In Love
TTITLE2=He Asked After You
TTITLE3=Love Factor
TTITLE4=Do You Ever Think About Me
TTITLE5=Picture Forever
TTITLE6=Slip Away
TTITLE7=Nothing is Better
TTITLE8=BONUS TRACK - Amnesia
EXTD=ID3G: 2
EXTT0=
EXTT1=
EXTT2=
EXTT3=
EXTT4=
EXTT5=
EXTT6=
EXTT7=
EXTT8=
PLAYORDER=
